<?xml version="1.0" standalone="no"?>
<!DOCTYPE svg PUBLIC "-//W3C//DTD SVG 20010904//EN"
 "http://www.w3.org/TR/2001/REC-SVG-20010904/DTD/svg10.dtd">
<svg version="1.0" xmlns="http://www.w3.org/2000/svg"
 width="124.000000pt" height="124.000000pt" viewBox="0 0 124.000000 124.000000"
 preserveAspectRatio="xMidYMid meet">
<g transform="translate(0.000000,124.000000) scale(0.100000,-0.100000)"
fill="#000000" stroke="none">
<path d="M149 1195 c-52 -27 -105 -83 -125 -131 -11 -27 -14 -119 -14 -446 l0
-413 24 -45 c13 -25 42 -60 65 -77 77 -60 103 -62 536 -60 372 2 392 3 435 23
54 25 104 72 130 125 19 36 20 60 20 446 0 389 -1 410 -21 453 -27 59 -74 108
-127 131 -41 18 -73 19 -460 19 l-417 -1 -46 -24z m937 -20 c33 -21 60 -48 81
-85 l33 -54 0 -409 c0 -454 1 -445 -68 -515 -68 -67 -66 -67 -485 -70 -254 -2
-396 1 -433 8 -73 15 -132 61 -167 130 l-28 55 3 395 3 396 25 49 c27 53 94
107 154 124 17 6 206 9 432 8 l401 -2 49 -30z"/>
<path d="M222 1183 c-13 -3 -19 -9 -16 -15 4 -7 2 -8 -5 -4 -12 8 -77 -27 -99
-54 -7 -8 -24 -37 -37 -65 l-25 -50 0 -372 c0 -205 3 -373 8 -373 4 0 8 -11 8
-24 1 -14 7 -30 13 -38 6 -7 20 -25 31 -40 18 -23 69 -53 125 -72 36 -13 753
-7 803 7 60 15 111 66 135 132 15 44 17 92 17 410 0 396 -4 427 -62 483 -41
41 -55 51 -62 45 -3 -4 -6 -1 -6 6 0 7 -6 11 -14 8 -8 -3 -16 -1 -19 6 -3 9
-100 12 -388 13 -211 1 -394 0 -407 -3z m188 -35 c0 -4 10 -5 23 -2 42 10 107
9 107 -1 0 -5 5 -3 10 5 6 9 10 11 10 3 0 -7 6 -10 13 -8 6 2 24 6 39 9 21 3
25 1 21 -11 -5 -12 -7 -12 -14 -1 -5 7 -9 8 -9 3 0 -6 -8 -11 -17 -12 -10 -1
-40 -4 -67 -8 -35 -4 -52 -2 -58 7 -5 8 -8 9 -8 2 0 -7 -17 -15 -37 -19 -35
-6 -100 -47 -116 -72 -4 -7 -16 -13 -26 -13 -11 0 -22 -7 -25 -16 -4 -9 -2
-13 5 -8 7 4 10 1 7 -7 -3 -8 -11 -13 -17 -11 -6 1 -11 -3 -11 -9 0 -7 -12 -9
-36 -4 -58 10 -121 -27 -84 -50 6 -3 10 -19 10 -35 0 -25 4 -29 26 -27 19 1
27 -3 30 -16 2 -14 -1 -16 -11 -7 -10 8 -15 8 -20 -1 -6 -8 -10 -7 -16 2 -7
11 -9 10 -9 -4 0 -16 8 -18 53 -17 73 2 79 1 71 -11 -4 -8 -9 -7 -15 2 -6 10
-9 11 -9 2 0 -9 -17 -13 -49 -13 -30 0 -51 -5 -54 -12 -3 -7 -5 5 -5 27 0 22
-1 45 -2 50 -1 6 -3 21 -3 34 -1 13 -8 25 -15 27 -7 1 -8 0 -2 -3 14 -7 12
-43 -3 -43 -18 0 -16 73 3 82 13 6 13 7 0 7 -9 1 -16 11 -16 25 -1 17 2 23 12
19 16 -6 19 13 4 22 -22 13 -8 24 16 13 22 -10 27 -9 36 6 9 17 10 17 23 -1
12 -15 17 -16 35 -5 16 10 25 10 35 2 10 -9 20 -7 39 5 24 16 39 44 16 30 -5
-3 -10 0 -10 8 0 19 -22 27 -54 21 -16 -2 -26 0 -26 7 0 7 -9 6 -24 -4 -13 -9
-26 -13 -30 -10 -10 11 28 32 59 33 17 0 35 4 42 8 15 9 153 9 153 0z m510 5
c0 4 5 5 10 2 6 -4 29 -8 51 -10 43 -5 131 -48 107 -53 -9 -2 -20 -25 -28 -58
-7 -30 -17 -57 -22 -60 -4 -3 -8 -10 -8 -16 0 -7 5 -6 15 2 8 6 23 9 35 5 14
-4 28 -1 41 11 10 9 22 14 27 9 4 -4 1 -10 -7 -13 -11 -4 -11 -6 0 -13 12 -8
12 -11 -1 -18 -12 -9 -12 -11 3 -17 13 -5 15 -10 7 -19 -8 -10 -8 -15 0 -20 6
-4 9 -13 6 -21 -3 -7 -1 -16 4 -19 6 -4 10 -12 10 -18 0 -8 -3 -7 -9 2 -7 11
-11 10 -20 -6 -5 -11 -7 -24 -3 -28 4 -3 9 -94 12 -201 5 -184 4 -194 -14
-194 -11 0 -16 5 -13 14 3 8 -1 17 -9 20 -19 7 -18 35 1 42 8 4 15 12 15 19 0
17 -29 40 -38 30 -4 -4 -1 -10 6 -12 13 -5 17 -33 4 -33 -8 0 -30 46 -33 70
-3 29 1 38 23 43 21 6 21 7 5 25 -9 10 -14 22 -10 27 5 4 2 5 -5 1 -7 -4 -10
-12 -7 -17 4 -5 2 -9 -3 -9 -5 0 -9 12 -9 26 0 36 -50 86 -83 82 -19 -2 -25 1
-24 14 1 10 -3 15 -9 11 -6 -4 -8 0 -4 10 3 9 0 23 -8 31 -8 7 -12 16 -9 19 8
8 -45 107 -57 107 -6 0 -6 -7 1 -20 6 -11 21 -52 35 -91 15 -44 36 -85 56
-105 30 -31 30 -32 10 -39 -30 -9 -63 3 -88 33 -18 21 -23 23 -23 10 0 -20 59
-68 84 -68 9 0 14 -4 11 -10 -16 -27 -101 -3 -138 38 -18 20 -18 20 2 15 12
-3 21 -1 21 6 0 6 -10 11 -23 11 -19 0 -28 11 -46 58 -41 101 -103 202 -124
202 -11 0 -21 -9 -24 -20 -4 -15 -9 -18 -18 -10 -30 24 -148 -69 -189 -148
-19 -36 -44 -109 -49 -140 -2 -12 -6 -25 -10 -28 -23 -23 23 -104 59 -104 25
0 9 -48 -29 -85 -38 -37 -39 -37 -102 -30 l-63 6 24 24 c23 23 33 56 17 54
-22 -4 -32 3 -39 24 -5 12 -7 25 -6 30 1 4 -3 7 -9 7 -11 0 -8 68 5 88 4 6 5
16 1 21 -3 5 -1 12 5 16 6 4 8 11 5 16 -4 5 -2 9 2 9 8 0 39 71 34 78 -1 2 6
10 16 19 10 8 12 11 5 8 -11 -6 -11 -3 0 14 7 12 17 21 21 21 5 0 7 6 4 14 -3
8 1 20 9 26 8 7 14 20 14 29 0 30 91 119 145 141 l50 21 -44 -6 c-90 -12 -187
-70 -220 -132 -14 -28 -14 -30 4 -30 10 0 14 6 10 15 -3 8 3 16 15 19 11 3 18
9 15 13 -2 4 5 16 18 26 12 11 16 12 10 4 -6 -8 -11 -17 -10 -20 3 -14 -39
-70 -50 -66 -7 3 -13 0 -13 -7 0 -8 -3 -8 -9 2 -6 9 -24 12 -60 10 -37 -3 -51
0 -51 9 0 10 13 13 47 11 44 -3 48 -1 66 31 10 19 33 50 50 68 32 34 107 79
107 65 0 -5 4 -2 9 5 12 19 87 28 106 12 12 -10 19 -10 37 2 13 8 55 15 100
17 75 3 106 -5 136 -36 7 -7 24 -13 38 -13 13 0 24 -5 24 -11 0 -5 4 -8 9 -5
11 7 101 -91 101 -109 0 -7 6 -18 14 -24 8 -7 18 -26 21 -42 4 -16 10 -29 14
-29 4 0 9 -26 10 -57 1 -43 7 -63 21 -78 13 -12 20 -15 20 -7 0 7 4 10 10 7
12 -8 50 12 50 27 0 7 -4 7 -12 1 -20 -16 -60 -23 -55 -10 2 6 21 16 43 22 27
7 35 13 26 19 -7 4 -11 14 -8 22 6 16 -10 28 -19 14 -5 -8 -11 -7 -21 1 -9 7
-14 8 -14 1 0 -6 9 -14 20 -17 21 -7 28 -35 9 -35 -5 0 -7 6 -3 13 6 10 4 10
-7 0 -19 -18 -34 -16 -19 3 11 12 11 15 0 12 -8 -2 -14 2 -15 7 0 6 -4 16 -9
24 -6 10 -5 12 2 7 7 -4 12 -2 12 3 0 6 -5 11 -11 11 -5 0 -7 5 -4 11 5 7 15
3 30 -11 22 -21 25 -21 47 -6 12 9 19 16 14 16 -5 0 -3 6 3 14 9 11 9 19 -1
35 -14 23 -24 26 -33 12 -3 -6 3 -15 12 -20 17 -11 17 -11 0 -22 -9 -5 -15
-14 -12 -19 3 -5 1 -11 -5 -15 -5 -3 -10 1 -10 10 0 8 -6 18 -14 21 -20 8 -28
32 -17 53 7 13 6 18 -4 18 -8 0 -12 -4 -10 -8 3 -4 2 -14 -1 -23 -5 -13 -8
-13 -20 -1 -20 19 -18 30 3 14 15 -13 15 -12 3 8 -8 12 -17 20 -21 17 -7 -4
-20 23 -25 53 -1 7 -9 20 -18 29 -17 17 -21 29 -8 20 5 -3 18 6 30 19 12 14
17 27 12 30 -6 4 -10 1 -10 -5 0 -6 -4 -8 -10 -5 -5 3 -10 1 -10 -4 0 -6 -9
-20 -20 -31 -19 -19 -21 -19 -27 -3 -6 16 -28 35 -43 39 -3 0 -18 6 -33 12
-15 7 -39 15 -53 18 -13 3 -29 15 -35 26 -9 17 -8 19 10 13 12 -3 21 -3 21 2
0 5 29 6 65 3 36 -3 65 -2 65 3z m-203 -9 c-3 -3 -12 -4 -19 -1 -8 3 -5 6 6 6
11 1 17 -2 13 -5z m-50 -10 c-3 -3 -12 -4 -19 -1 -8 3 -5 6 6 6 11 1 17 -2 13
-5z m-517 -54 c0 -13 -7 -20 -20 -20 -13 0 -20 7 -20 20 0 13 7 20 20 20 13 0
20 -7 20 -20z m60 0 c0 -11 -7 -20 -15 -20 -8 0 -15 9 -15 20 0 11 7 20 15 20
8 0 15 -9 15 -20z m70 6 c0 -8 -5 -18 -11 -22 -14 -8 -33 11 -25 25 10 16 36
13 36 -3z m837 -91 c-15 -17 -30 -25 -37 -20 -9 6 -6 13 11 26 22 17 23 18 6
37 -26 28 -7 36 21 8 l25 -24 -26 -27z m-877 -55 c0 -5 -25 -10 -55 -10 -30 0
-55 5 -55 10 0 6 25 10 55 10 30 0 55 -4 55 -10z m420 -4 c0 -2 -7 -7 -16 -10
-8 -3 -12 -2 -9 4 6 10 25 14 25 6z m35 -56 c8 -15 11 -30 8 -34 -4 -3 -2 -6
4 -6 6 0 16 -13 21 -30 11 -29 10 -30 -29 -40 -21 -6 -39 -15 -39 -20 0 -13 1
-13 45 6 20 8 38 14 39 12 5 -8 26 -59 26 -63 0 -3 -25 -5 -55 -5 -30 0 -55
-4 -55 -10 0 -5 5 -10 10 -10 6 0 10 -13 10 -29 0 -37 7 -41 74 -48 49 -5 53
-4 59 18 11 40 19 12 12 -40 -4 -30 -13 -52 -22 -55 -27 -11 -157 -36 -161
-32 -8 8 9 26 19 21 5 -4 9 -2 9 4 0 27 -21 17 -40 -18 -21 -43 -25 -55 -12
-47 4 2 9 -6 10 -20 1 -18 -3 -24 -18 -24 -21 0 -36 17 -25 28 4 4 10 1 12 -5
3 -7 9 -13 14 -13 15 0 -2 29 -22 35 -11 4 -16 11 -13 17 4 7 9 7 13 -1 5 -7
14 2 24 21 9 18 21 40 25 48 26 45 31 60 22 60 -5 0 -14 -9 -20 -20 -9 -16
-15 -18 -30 -10 -13 7 -21 7 -25 -1 -4 -6 -13 -8 -21 -5 -8 3 -14 -1 -14 -8 0
-8 -8 -24 -18 -35 -15 -20 -22 -21 -61 -12 -88 19 -123 71 -81 116 13 14 20
31 17 40 -10 24 3 72 27 97 11 12 20 25 19 28 0 3 5 16 13 30 7 14 13 21 14
17 0 -5 16 8 35 28 21 22 39 34 46 29 7 -4 9 -3 5 4 -4 7 10 12 41 14 63 4 71
1 88 -32z m-450 -14 c19 1 37 -2 41 -7 6 -10 5 -10 -48 -13 -32 -1 -38 1 -37
19 0 11 3 15 5 9 3 -6 20 -10 39 -8z m-135 -11 c0 -8 -4 -15 -10 -15 -5 0 -10
7 -10 15 0 8 5 15 10 15 6 0 10 -7 10 -15z m0 -40 c0 -8 -4 -15 -9 -15 -5 0
-11 7 -15 15 -3 9 0 15 9 15 8 0 15 -7 15 -15z m-33 -27 c-3 -8 -6 -5 -6 6 -1
11 2 17 5 13 3 -3 4 -12 1 -19z m35 -45 c1 -38 1 -38 5 -5 2 18 9 30 14 27 5
-4 9 -1 9 4 0 6 11 11 25 11 14 0 25 -4 25 -10 0 -5 -7 -10 -16 -10 -8 0 -22
-6 -29 -14 -12 -11 -8 -13 25 -12 48 1 58 -18 12 -22 -18 -2 -30 -7 -27 -12 3
-4 15 -6 28 -2 19 5 20 4 8 -11 -7 -9 -17 -14 -22 -11 -5 3 -6 -2 -2 -11 4
-13 7 -14 14 -3 6 9 8 6 6 -10 -1 -12 -6 -21 -12 -18 -7 2 -12 -2 -12 -9 0 -7
6 -11 14 -8 7 3 13 0 13 -6 0 -7 -7 -14 -15 -17 -12 -5 -13 -9 -4 -20 7 -8 9
-17 5 -21 -7 -8 -47 27 -41 37 2 4 -2 7 -10 7 -8 0 -13 -5 -12 -11 1 -6 -3
-10 -10 -9 -7 2 -10 -3 -7 -10 3 -8 -2 -14 -11 -14 -13 0 -15 6 -9 26 4 14 8
35 9 45 2 29 25 32 25 4 0 -18 2 -20 9 -9 20 31 -6 100 -31 85 -4 -3 -5 1 -2
9 3 8 1 18 -5 21 -7 5 -7 13 2 26 18 30 27 24 29 -17z m138 27 c0 -5 -9 -10
-20 -10 -11 0 -20 5 -20 10 0 6 9 10 20 10 11 0 20 -4 20 -10z m772 -77 c32
-29 21 -76 -23 -98 -46 -24 -67 -14 -36 17 8 7 12 18 10 25 -2 6 5 14 16 18
26 8 27 23 4 41 -14 10 -15 13 -4 14 8 0 23 -7 33 -17z m-912 -17 c0 -8 -7
-16 -15 -20 -17 -6 -18 -4 -9 18 8 20 24 21 24 2z m690 -11 c8 -10 8 -20 1
-32 -8 -16 -18 -18 -58 -14 -48 6 -62 22 -50 54 6 16 93 9 107 -8z m-418 -27
c-8 -8 -9 -4 -5 13 4 13 8 18 11 10 2 -7 -1 -18 -6 -23z m482 -29 c-5 -8 5 -9
33 -4 l40 6 -2 -50 c-1 -30 6 -72 17 -103 11 -29 19 -65 19 -80 -1 -15 4 -30
10 -33 6 -5 3 -12 -10 -22 -17 -11 -19 -18 -11 -33 8 -15 6 -24 -9 -39 -31
-31 -76 -51 -114 -51 -33 0 -35 3 -47 48 -7 26 -17 51 -21 57 -16 16 -10 -30
11 -90 11 -32 20 -59 20 -59 0 -7 -124 14 -148 25 l-34 14 7 65 c4 36 10 81
14 100 6 33 10 35 46 36 22 0 59 8 83 17 l42 16 -25 -37 c-29 -42 -35 -83 -10
-62 8 7 15 20 15 29 1 21 30 61 30 40 0 -8 11 -30 25 -49 14 -19 25 -47 25
-62 0 -26 3 -28 35 -25 19 1 37 8 40 15 3 8 0 10 -7 6 -8 -5 -9 -2 -3 12 15
31 8 95 -10 113 -16 15 -17 14 -10 -14 13 -53 14 -77 2 -96 -15 -24 -39 -25
-30 -3 5 14 -29 96 -47 114 -22 22 -3 210 21 210 6 0 7 -5 3 -11z m177 -40
c-6 -28 -6 -46 0 -50 5 -3 7 -13 3 -22 -4 -10 0 -19 9 -23 9 -3 13 -12 11 -19
-3 -7 0 -16 7 -21 8 -5 10 -3 4 7 -5 8 -4 11 1 6 5 -5 10 -13 10 -18 1 -5 2
-14 3 -20 0 -5 6 -7 11 -4 14 9 12 -18 -2 -34 -14 -15 -12 -14 36 5 16 6 18 4
14 -14 -4 -14 -2 -20 4 -16 6 4 8 1 6 -7 -3 -8 -11 -13 -17 -11 -14 3 -71 -35
-71 -48 0 -5 13 -2 30 6 30 15 50 12 50 -8 0 -6 -13 -8 -31 -6 -22 4 -34 -1
-44 -16 -21 -29 -26 -16 -12 32 7 24 16 40 19 37 3 -3 4 9 2 26 -7 56 -52 89
-72 52 -8 -14 -12 -12 -25 13 -8 16 -20 53 -25 82 l-9 53 32 14 c19 7 39 23
45 35 17 32 22 18 11 -31z m-906 -20 c-4 -5 0 -12 8 -15 12 -4 12 -10 3 -30
-12 -27 -26 -32 -26 -9 0 7 -7 18 -16 23 -15 8 -15 10 0 15 9 4 16 14 16 22 0
9 5 13 10 10 6 -4 8 -11 5 -16z m476 -33 c-9 -19 -18 -28 -20 -22 -8 22 -41
35 -41 16 0 -5 7 -10 15 -10 8 0 15 -4 15 -10 0 -13 -17 -13 -25 0 -4 6 -11 7
-17 4 -6 -4 -6 1 1 14 16 29 49 51 70 45 17 -4 17 -7 2 -37z m-401 -28 c24
-39 24 -39 6 -63 -11 -16 -18 -17 -37 -8 -17 8 -19 12 -8 12 10 1 18 12 21 29
4 26 1 28 -21 25 -24 -4 -25 -3 -9 10 10 8 15 17 11 20 -3 4 -1 7 5 7 7 0 21
-15 32 -32z m585 -8 c9 -29 0 -38 -57 -55 -81 -24 -95 -21 -100 20 -4 35 -4
35 37 36 22 1 54 5 70 9 17 4 33 8 37 9 4 0 9 -8 13 -19z m-695 0 c0 -5 5 -10
11 -10 12 0 38 -29 39 -43 0 -5 -14 -7 -32 -5 -28 3 -32 7 -35 36 -3 18 0 32
6 32 6 0 11 -4 11 -10z m375 -10 c-8 -14 71 -94 84 -85 7 4 11 -3 11 -17 0
-19 -2 -20 -11 -8 -8 13 -9 12 -7 -4 2 -10 -3 -21 -11 -24 -8 -3 -11 0 -7 7 5
7 1 9 -9 5 -22 -9 -63 22 -82 61 -16 33 -15 36 2 55 19 20 41 28 30 10z m77
-7 c19 -17 24 -48 9 -57 -10 -7 -71 47 -71 62 0 18 41 14 62 -5z m-372 -8 c0
-8 -4 -15 -10 -15 -5 0 -10 7 -10 15 0 8 5 15 10 15 6 0 10 -7 10 -15z m288
-108 c11 -10 31 -21 45 -25 24 -7 24 -8 10 -27 -11 -14 -17 -16 -20 -7 -3 6
-10 12 -16 12 -8 0 -7 -4 1 -12 17 -17 15 -25 -7 -31 -16 -4 -21 2 -27 27 -10
38 -9 37 -16 56 -4 8 -9 23 -12 33 -3 9 -15 17 -26 17 -25 0 -25 8 -3 30 17
15 19 14 34 -19 9 -20 25 -44 37 -54z m142 34 c0 -9 -5 -36 -11 -61 -6 -25
-11 -61 -13 -80 -2 -33 -5 -35 -35 -33 -78 3 -104 25 -54 44 25 9 47 31 54 54
1 6 11 19 21 30 13 14 17 28 13 47 -5 23 -4 27 9 22 9 -3 16 -14 16 -23z m450
9 c6 -12 8 -36 4 -57 -6 -34 -8 -35 -15 -14 -5 12 -13 20 -18 17 -13 -8 -58
30 -48 40 5 5 17 -2 28 -16 l21 -25 -7 28 c-10 46 15 65 35 27z m-812 -5 c54
-8 108 -13 119 -10 41 7 57 -23 98 -185 9 -36 19 -74 22 -84 5 -18 1 -19 -58
-13 -231 22 -309 43 -309 84 0 8 -3 12 -7 10 -5 -3 -8 11 -8 31 1 21 -2 44 -6
52 -8 16 -29 102 -29 119 0 15 63 14 178 -4z m368 -100 c-7 -55 -14 -86 -15
-68 -1 38 21 192 26 178 1 -5 -3 -55 -11 -110z m417 17 c25 -22 21 -32 -12
-32 -37 0 -59 24 -41 45 13 15 22 13 53 -13z m-941 -71 c2 -17 1 -28 -3 -26
-10 7 -18 55 -9 55 4 0 10 -13 12 -29z m900 20 c-11 -7 -10 -10 3 -15 26 -10
104 -7 126 5 19 9 20 8 17 -18 -3 -25 -8 -29 -51 -37 -66 -13 -121 1 -125 33
-4 23 11 41 33 41 6 0 4 -4 -3 -9z m-47 -40 c-3 -5 -1 -12 5 -16 19 -12 10
-24 -36 -45 -56 -24 -68 -25 -88 -4 -24 23 -20 29 24 40 28 8 37 8 33 0 -4 -6
6 -1 21 12 29 22 52 30 41 13z m-277 -45 c9 -9 -20 -26 -32 -19 -5 3 -6 1 -3
-4 4 -6 0 -14 -9 -17 -8 -3 -12 -2 -9 4 3 6 1 10 -4 10 -6 0 -11 -6 -11 -14 0
-7 -9 -16 -20 -19 -11 -3 -18 -1 -14 4 3 5 0 9 -5 9 -6 0 -11 -4 -11 -10 0 -5
-7 -6 -17 -3 -11 4 -14 3 -9 -5 5 -8 2 -10 -8 -6 -24 9 -19 23 12 35 25 10 26
12 7 19 -14 6 -15 9 -4 9 8 1 20 -4 25 -9 8 -8 15 -6 24 5 11 13 9 15 -13 15
-42 0 -85 12 -90 24 -4 9 21 7 90 -5 51 -9 97 -20 101 -23z m437 7 c28 15 15
-7 -22 -40 -20 -18 -43 -33 -50 -33 -27 0 -53 21 -53 43 -1 20 -2 20 -16 -5
-11 -21 -22 -28 -44 -28 -16 0 -32 5 -35 10 -3 6 4 10 18 10 13 0 35 10 48 23
21 19 31 21 82 17 31 -3 64 -2 72 3z m-591 -18 c-4 -8 -10 -15 -15 -15 -5 0
-9 7 -9 15 0 8 7 15 15 15 9 0 12 -6 9 -15z m170 -17 c-5 -9 -2 -9 9 1 9 7 17
10 17 5 0 -5 22 -7 50 -6 32 3 50 0 50 -7 0 -6 14 -11 30 -11 17 0 30 -4 30
-9 0 -5 10 -12 23 -14 12 -3 -44 -4 -126 -2 -81 1 -151 6 -155 10 -4 5 0 6 8
3 17 -6 42 16 32 28 -4 4 -2 4 5 0 6 -3 14 -2 18 4 3 5 8 10 11 10 3 0 2 -6
-2 -12z m281 -38 c-3 -5 -12 -10 -18 -10 -7 0 -6 4 3 10 19 12 23 12 15 0z"/>
<path d="M122 1018 c-15 -15 -16 -48 -2 -48 6 0 10 9 10 19 0 11 5 23 12 27 7
4 8 3 4 -4 -5 -8 1 -12 16 -12 13 0 29 -5 36 -12 9 -9 12 -9 12 0 0 7 -4 12
-10 12 -5 0 -7 8 -4 18 5 14 4 15 -5 2 -7 -10 -11 -11 -11 -2 0 15 -42 16 -58
0z"/>
<path d="M778 1123 c7 -3 16 -2 19 1 4 3 -2 6 -13 5 -11 0 -14 -3 -6 -6z"/>
<path d="M1022 1063 c-32 -43 -33 -45 -16 -64 15 -17 15 -19 1 -19 -10 0 -14
-5 -11 -15 11 -28 21 -15 39 53 10 37 22 70 28 73 5 4 5 9 1 12 -5 2 -24 -15
-42 -40z"/>
<path d="M678 1045 c-43 -29 -51 -30 -82 -10 -17 11 -30 13 -47 6 l-24 -10 27
0 c27 -1 58 -24 58 -44 0 -8 -4 -7 -12 1 -7 7 -22 12 -34 12 -29 0 -84 -20
-84 -31 0 -5 12 -4 26 1 39 15 82 12 92 -6 8 -14 13 -12 33 15 28 37 75 53
123 40 37 -10 86 -45 86 -61 0 -6 -7 -5 -17 3 -11 9 -14 10 -9 2 4 -7 16 -18
26 -23 18 -10 19 -8 10 14 -22 58 -84 99 -130 86 -40 -11 -38 -3 3 15 23 10
27 14 12 15 -11 0 -37 -11 -57 -25z"/>
<path d="M765 1060 c3 -5 11 -10 16 -10 6 0 7 5 4 10 -3 6 -11 10 -16 10 -6 0
-7 -4 -4 -10z"/>
<path d="M696 992 c-3 -5 1 -9 9 -9 8 0 12 4 9 9 -3 4 -7 8 -9 8 -2 0 -6 -4
-9 -8z"/>
<path d="M420 985 c0 -5 5 -17 10 -25 5 -8 10 -10 10 -5 0 6 -5 17 -10 25 -5
8 -10 11 -10 5z"/>
<path d="M892 948 c22 -33 41 -36 27 -4 -7 14 -19 26 -27 26 -13 0 -13 -3 0
-22z"/>
<path d="M401 927 c-13 -20 -13 -21 2 -9 10 9 17 10 22 2 3 -5 0 -10 -7 -10
-8 0 -7 -5 5 -17 25 -25 32 -8 10 26 l-19 30 -13 -22z"/>
<path d="M507 939 c7 -7 15 -10 18 -7 3 3 -2 9 -12 12 -14 6 -15 5 -6 -5z"/>
<path d="M805 921 c5 -27 3 -32 -9 -28 -9 4 -18 2 -21 -3 -10 -16 31 -11 45 5
9 11 8 19 -5 37 -16 23 -16 23 -10 -11z"/>
<path d="M453 911 c10 -20 22 -16 17 5 -1 4 4 10 11 14 7 5 2 7 -13 7 -23 -2
-24 -4 -15 -26z"/>
<path d="M1083 916 c-15 -13 -24 -28 -20 -32 4 -5 19 5 32 20 38 44 32 50 -12
12z"/>
<path d="M374 903 c4 -7 0 -23 -9 -36 -13 -20 -13 -24 -1 -24 8 0 14 3 14 6
-1 3 2 14 7 24 5 11 3 23 -5 30 -10 9 -11 9 -6 0z"/>
<path d="M930 901 c0 -6 4 -13 10 -16 6 -3 7 1 4 9 -7 18 -14 21 -14 7z"/>
<path d="M804 859 c-27 -8 -45 -39 -22 -39 5 0 6 -6 2 -12 -4 -8 -3 -9 2 -5 5
5 9 16 9 25 0 13 9 17 38 16 41 -2 45 1 20 14 -10 5 -32 5 -49 1z"/>
<path d="M975 850 c2 -14 5 -42 5 -63 0 -27 4 -37 13 -34 15 5 10 50 -9 92
-12 26 -14 27 -9 5z"/>
<path d="M395 850 c-3 -5 1 -10 10 -10 9 0 13 5 10 10 -3 6 -8 10 -10 10 -2 0
-7 -4 -10 -10z"/>
<path d="M292 720 c-7 -12 -10 -25 -7 -30 4 -6 1 -10 -6 -10 -7 0 -9 -3 -6 -7
4 -3 0 -17 -8 -30 -9 -13 -13 -28 -10 -33 3 -5 1 -11 -5 -15 -12 -7 -5 -58 12
-89 11 -20 12 -20 19 8 5 17 11 64 15 105 3 42 10 86 15 98 11 29 -2 30 -19 3z"/>
<path d="M366 480 c-9 -50 -7 -58 10 -27 10 18 12 33 6 43 -7 13 -10 10 -16
-16z"/>
<path d="M476 771 c14 -13 74 -31 74 -22 0 4 -15 12 -33 19 -39 14 -55 15 -41
3z"/>
<path d="M630 751 c0 -5 5 -13 10 -16 6 -3 10 -2 10 4 0 5 -4 13 -10 16 -5 3
-10 2 -10 -4z"/>
<path d="M518 713 c7 -3 16 -2 19 1 4 3 -2 6 -13 5 -11 0 -14 -3 -6 -6z"/>
<path d="M688 713 c7 -3 16 -2 19 1 4 3 -2 6 -13 5 -11 0 -14 -3 -6 -6z"/>
<path d="M418 693 c-7 -9 -7 -13 1 -13 6 0 11 -12 11 -27 0 -47 12 -55 63 -48
55 8 67 21 64 62 -2 31 -2 32 -65 35 -42 2 -67 -1 -74 -9z m122 -43 c0 -29 -2
-30 -44 -30 -36 0 -46 4 -51 20 -10 31 2 40 51 40 42 0 44 -1 44 -30z"/>
<path d="M460 651 c0 -5 9 -7 20 -4 11 3 20 7 20 9 0 2 -9 4 -20 4 -11 0 -20
-4 -20 -9z"/>
<path d="M467 570 c-11 -11 -14 -20 -8 -24 5 -4 15 3 21 15 15 27 10 31 -13 9z"/>
<path d="M724 569 c-3 -6 0 -15 7 -20 21 -13 33 -11 20 4 -6 8 -8 17 -4 20 3
4 1 7 -5 7 -6 0 -14 -5 -18 -11z"/>
<path d="M869 423 c14 -28 17 -28 25 -6 4 10 4 14 0 10 -4 -4 -14 -1 -22 6
-13 10 -14 9 -3 -10z"/>
<path d="M976 496 c2 -19 8 -45 14 -58 8 -19 9 -17 3 12 -3 19 -6 45 -5 58 1
12 -2 22 -7 22 -5 0 -8 -15 -5 -34z"/>
<path d="M575 530 c3 -5 10 -10 16 -10 5 0 9 5 9 10 0 6 -7 10 -16 10 -8 0
-12 -4 -9 -10z"/>
<path d="M87 372 c7 -4 44 -9 82 -10 38 -2 79 -5 92 -8 13 -4 44 -7 68 -9 49
-3 75 -27 87 -78 3 -16 8 -27 10 -24 2 2 -2 27 -9 56 -14 60 -4 56 -174 71
-146 12 -172 12 -156 2z"/>
<path d="M255 316 c-9 -11 -13 -16 -10 -9 3 8 -4 7 -24 -3 -34 -17 -60 -44
-42 -44 7 0 9 -5 6 -10 -4 -6 -11 -7 -17 -4 -7 4 -8 2 -4 -5 4 -6 12 -8 18 -5
6 4 8 2 5 -4 -12 -18 4 -42 28 -42 22 0 50 -22 40 -32 -3 -3 0 -10 7 -16 10
-8 22 -3 48 18 32 26 35 33 35 82 0 38 -5 58 -17 69 -10 9 -16 18 -14 20 3 2
-6 5 -19 5 -14 1 -31 -7 -40 -20z m48 -20 c25 -19 24 -97 -3 -114 -17 -10 -22
-8 -42 19 -20 26 -24 28 -34 14 -8 -11 -14 -13 -19 -5 -4 6 -2 17 4 24 7 9 7
16 -1 24 -16 16 -2 28 15 13 12 -9 18 -6 31 14 19 28 24 30 49 11z m-23 -146
c0 -5 -2 -10 -4 -10 -3 0 -8 5 -11 10 -3 6 -1 10 4 10 6 0 11 -4 11 -10z"/>
<path d="M262 258 c-8 -8 -9 -15 -1 -25 17 -19 24 -16 24 12 0 28 -5 31 -23
13z"/>
<path d="M431 222 c-1 -7 -5 -11 -10 -7 -5 3 -13 1 -16 -5 -4 -6 -3 -10 2 -9
18 3 34 -2 29 -9 -2 -4 -1 -14 5 -22 7 -12 9 -11 8 5 -1 23 -17 66 -18 47z"/>
</g>
</svg>
